<svg width="100" height="100" viewBox="0 0 100 100" fill="none"
  xmlns="http://www.w3.org/2000/svg">
  <g id="darkmode-toggle" clip-path="url(#clip0)">
    <rect width="100" height="100" fill="white"/>
    <circle id="circle" cx="50" cy="50" r="35" fill="#9D9D87"/>
    <g id="cover" style="mix-blend-mode:saturation">
      <circle cx="75" cy="25" r="40" fill="black"/>
    </g>
    <g id="sun-rays">
      <path d="M32.5 11C32.5 13.7614 30.2614 16 27.5 16C24.7386 16 22.5 13.7614 22.5 11C22.5 8.23858 24.7386 6 27.5 6C30.2614 6 32.5 8.23858 32.5 11Z"/>
      <path d="M16 27.5C16 30.2614 13.7614 32.5 11 32.5C8.23858 32.5 6 30.2614 6 27.5C6 24.7386 8.23858 22.5 11 22.5C13.7614 22.5 16 24.7386 16 27.5Z"/>
      <path d="M10 50C10 52.7614 7.76142 55 5 55C2.23858 55 0 52.7614 0 50C0 47.2386 2.23858 45 5 45C7.76142 45 10 47.2386 10 50Z"/>
      <path d="M16 72.5C16 75.2614 13.7614 77.5 11 77.5C8.23858 77.5 6 75.2614 6 72.5C6 69.7386 8.23858 67.5 11 67.5C13.7614 67.5 16 69.7386 16 72.5Z"/>
      <path d="M32.5 89C32.5 91.7614 30.2614 94 27.5 94C24.7386 94 22.5 91.7614 22.5 89C22.5 86.2386 24.7386 84 27.5 84C30.2614 84 32.5 86.2386 32.5 89Z"/>
      <path d="M55 95C55 97.7614 52.7614 100 50 100C47.2386 100 45 97.7614 45 95C45 92.2386 47.2386 90 50 90C52.7614 90 55 92.2386 55 95Z"/>
      <path d="M77.5 89C77.5 91.7614 75.2614 94 72.5 94C69.7386 94 67.5 91.7614 67.5 89C67.5 86.2386 69.7386 84 72.5 84C75.2614 84 77.5 86.2386 77.5 89Z"/>
      <path d="M94 72.5C94 75.2614 91.7614 77.5 89 77.5C86.2386 77.5 84 75.2614 84 72.5C84 69.7386 86.2386 67.5 89 67.5C91.7614 67.5 94 69.7386 94 72.5Z"/>
      <path d="M100 50C100 52.7614 97.7614 55 95 55C92.2386 55 90 52.7614 90 50C90 47.2386 92.2386 45 95 45C97.7614 45 100 47.2386 100 50Z"/>
      <path d="M94 27.5C94 30.2614 91.7614 32.5 89 32.5C86.2386 32.5 84 30.2614 84 27.5C84 24.7386 86.2386 22.5 89 22.5C91.7614 22.5 94 24.7386 94 27.5Z"/>
      <path d="M77.5 11C77.5 13.7614 75.2614 16 72.5 16C69.7386 16 67.5 13.7614 67.5 11C67.5 8.23858 69.7386 6 72.5 6C75.2614 6 77.5 8.23858 77.5 11Z"/>
      <path d="M55 5C55 7.76142 52.7614 10 50 10C47.2386 10 45 7.76142 45 5C45 2.23858 47.2386 0 50 0C52.7614 0 55 2.23858 55 5Z"/>
    </g>
  </g>
  <defs>
    <clipPath id="clip0">
      <rect width="100" height="100" fill="white"/>
    </clipPath>
  </defs>
</svg>
