<svg width="100" height="100" viewBox="0 0 100 100" fill="none"
  xmlns="http://www.w3.org/2000/svg">
  <rect x="20.6584" y="9.20536" width="10" height="20" rx="5" transform="rotate(-30 20.6584 9.20536)"/>
  <rect x="4.219" y="29.2951" width="10" height="20" rx="5" transform="rotate(-60 4.219 29.2951)"/>
  <rect y="55" width="10" height="20" rx="5" transform="rotate(-90 0 55)"/>
  <rect x="9.20536" y="79.3416" width="10" height="20" rx="5" transform="rotate(-120 9.20536 79.3416)"/>
  <rect x="29.2951" y="95.781" width="10" height="20" rx="5" transform="rotate(-150 29.2951 95.781)"/>
  <rect x="45" y="80" width="10" height="20" rx="5"/>
  <rect x="60.6813" y="78.4741" width="10" height="20" rx="5" transform="rotate(-30 60.6813 78.4741)"/>
  <rect x="73.4605" y="69.3652" width="10" height="20" rx="5" transform="rotate(-60 73.4605 69.3652)"/>
  <rect x="80" y="55" width="10" height="20" rx="5" transform="rotate(-90 80 55)"/>
  <rect x="78.4741" y="39.3187" width="10" height="20" rx="5" transform="rotate(-120 78.4741 39.3187)"/>
  <rect x="69.3652" y="26.5395" width="10" height="20" rx="5" transform="rotate(-150 69.3652 26.5395)"/>
  <rect x="45" width="10" height="20" rx="5"/>
</svg>
